<svg width="23" height="23" viewBox="0 0 23 23" fill="none" xmlns="http://www.w3.org/2000/svg">
<path d="M18.7646 9.38086C18.7646 14.0655 13.5677 18.9443 11.8226 20.4511C11.66 20.5733 11.4621 20.6394 11.2587 20.6394C11.0553 20.6394 10.8574 20.5733 10.6949 20.4511C8.94974 18.9443 3.75287 14.0655 3.75287 9.38086C3.75287 7.39018 4.54366 5.48104 5.95129 4.07342C7.35891 2.66579 9.26805 1.875 11.2587 1.875C13.2494 1.875 15.1586 2.66579 16.5662 4.07342C17.9738 5.48104 18.7646 7.39018 18.7646 9.38086Z" stroke="#E5320F" stroke-width="1.87647" stroke-linecap="round" stroke-linejoin="round"/>
<path d="M11.2589 12.1968C12.8134 12.1968 14.0736 10.9366 14.0736 9.38208C14.0736 7.82757 12.8134 6.56738 11.2589 6.56738C9.70434 6.56738 8.44415 7.82757 8.44415 9.38208C8.44415 10.9366 9.70434 12.1968 11.2589 12.1968Z" stroke="#E5320F" stroke-width="1.87647" stroke-linecap="round" stroke-linejoin="round"/>
</svg>
