<svg width="17" height="17" viewBox="0 0 17 17" fill="none" xmlns="http://www.w3.org/2000/svg">
<path d="M7.44749 13.5412C6.25865 13.5448 5.11188 13.1015 4.23461 12.2991C3.35735 11.4968 2.81367 10.394 2.71142 9.20958C2.60917 8.02514 2.9558 6.84553 3.68258 5.9047C4.40935 4.96387 5.46318 4.33056 6.63504 4.13035C10.4942 3.38561 11.5097 3.03355 12.8638 1.35449C13.5408 2.70857 14.2179 4.18452 14.2179 6.77081C14.2179 10.4945 10.9816 13.5412 7.44749 13.5412Z" stroke="#E5320F" stroke-width="1.35408" stroke-linecap="round" stroke-linejoin="round"/>
<path d="M1.35413 14.2184C1.35413 12.1872 2.60665 10.5894 4.79349 10.1561C6.43192 9.83114 8.12452 8.80204 8.80156 8.125" stroke="#E5320F" stroke-width="1.35408" stroke-linecap="round" stroke-linejoin="round"/>
</svg>
