<svg width="17" height="17" viewBox="0 0 17 17" fill="none" xmlns="http://www.w3.org/2000/svg">
<g clip-path="url(#clip0_1_1652)">
<path d="M2.70816 9.47975C2.58004 9.48019 2.45442 9.44427 2.34591 9.37615C2.23739 9.30804 2.15043 9.21053 2.09513 9.09496C2.03983 8.97939 2.01845 8.8505 2.03349 8.72327C2.04852 8.59603 2.09935 8.47568 2.18007 8.37618L8.88276 1.47038C8.93304 1.41234 9.00155 1.37312 9.07706 1.35916C9.15256 1.3452 9.23057 1.35732 9.29828 1.39353C9.36599 1.42975 9.41937 1.48791 9.44967 1.55846C9.47996 1.62902 9.48538 1.70778 9.46501 1.78181L8.1651 5.85759C8.12677 5.96018 8.11389 6.07053 8.12758 6.17919C8.14127 6.28785 8.18111 6.39156 8.24369 6.48143C8.30627 6.57131 8.38972 6.64466 8.48688 6.6952C8.58403 6.74574 8.692 6.77195 8.80151 6.7716H13.5408C13.6689 6.77116 13.7945 6.80708 13.903 6.8752C14.0116 6.94331 14.0985 7.04082 14.1538 7.15639C14.2091 7.27196 14.2305 7.40085 14.2155 7.52808C14.2004 7.65532 14.1496 7.77567 14.0689 7.87517L7.36619 14.781C7.31591 14.839 7.2474 14.8782 7.17189 14.8922C7.09639 14.9062 7.01838 14.894 6.95067 14.8578C6.88296 14.8216 6.82958 14.7634 6.79928 14.6929C6.76898 14.6223 6.76357 14.5436 6.78394 14.4695L8.08385 10.3938C8.12218 10.2912 8.13505 10.1808 8.12137 10.0722C8.10768 9.9635 8.06783 9.85979 8.00525 9.76992C7.94267 9.68004 7.85923 9.60669 7.76207 9.55615C7.66491 9.50561 7.55695 9.4794 7.44743 9.47975H2.70816Z" stroke="#E5320F" stroke-width="1.35408" stroke-linecap="round" stroke-linejoin="round"/>
</g>
<defs>
<clipPath id="clip0_1_1652">
<rect width="16.2489" height="16.2489" fill="white"/>
</clipPath>
</defs>
</svg>
