<svg width="23" height="23" viewBox="0 0 23 23" fill="none" xmlns="http://www.w3.org/2000/svg">
<path d="M12.9778 15.5432C13.1715 15.6322 13.3898 15.6525 13.5967 15.6008C13.8036 15.5491 13.9867 15.4285 14.1158 15.2589L14.4489 14.8226C14.6237 14.5896 14.8503 14.4004 15.1109 14.2701C15.3715 14.1399 15.6588 14.072 15.9501 14.072H18.7648C19.2625 14.072 19.7397 14.2697 20.0916 14.6216C20.4435 14.9735 20.6412 15.4508 20.6412 15.9485V18.7632C20.6412 19.2609 20.4435 19.7382 20.0916 20.0901C19.7397 20.442 19.2625 20.6397 18.7648 20.6397C14.2858 20.6397 9.99018 18.8604 6.82302 15.6932C3.65587 12.5261 1.87659 8.23049 1.87659 3.75147C1.87659 3.2538 2.07429 2.77651 2.42619 2.4246C2.7781 2.0727 3.25538 1.875 3.75305 1.875H6.56775C7.06542 1.875 7.54271 2.0727 7.89461 2.4246C8.24652 2.77651 8.44422 3.2538 8.44422 3.75147V6.56617C8.44422 6.85748 8.37639 7.14479 8.24611 7.40535C8.11584 7.6659 7.92668 7.89255 7.69363 8.06734L7.25454 8.39666C7.08229 8.52818 6.96089 8.71527 6.91095 8.92615C6.86101 9.13703 6.88561 9.3587 6.98057 9.5535C8.26284 12.1579 10.3717 14.2642 12.9778 15.5432Z" stroke="#E5320F" stroke-width="1.87647" stroke-linecap="round" stroke-linejoin="round"/>
</svg>
