<svg width="91" height="91" viewBox="0 0 91 91" fill="none" xmlns="http://www.w3.org/2000/svg">
<path d="M0 22.5176C0 10.0815 10.0815 0 22.5176 0H67.5528C79.9889 0 90.0704 10.0815 90.0704 22.5176V67.5528C90.0704 79.9889 79.9889 90.0704 67.5528 90.0704H22.5176C10.0815 90.0704 0 79.9889 0 67.5528V22.5176Z" fill="#E5320F"/>
<path d="M52.5411 61.9233V58.1704C52.5411 56.1797 51.7503 54.2706 50.3427 52.863C48.9351 51.4553 47.0259 50.6646 45.0352 50.6646H33.7764C31.7858 50.6646 29.8766 51.4553 28.469 52.863C27.0614 54.2706 26.2706 56.1797 26.2706 58.1704V61.9233" stroke="white" stroke-width="3.75293" stroke-linecap="round" stroke-linejoin="round"/>
<path d="M52.541 28.3867C54.1505 28.804 55.5759 29.7439 56.5935 31.0589C57.6111 32.3739 58.1632 33.9896 58.1632 35.6524C58.1632 37.3152 57.6111 38.9308 56.5935 40.2459C55.5759 41.5609 54.1505 42.5008 52.541 42.9181" stroke="white" stroke-width="3.75293" stroke-linecap="round" stroke-linejoin="round"/>
<path d="M63.7997 61.9235V58.1706C63.7985 56.5076 63.245 54.892 62.2261 53.5776C61.2072 52.2632 59.7806 51.3245 58.1703 50.9087" stroke="white" stroke-width="3.75293" stroke-linecap="round" stroke-linejoin="round"/>
<path d="M39.0833 43.0117C43.2287 43.0117 46.5892 39.6512 46.5892 35.5059C46.5892 31.3605 43.2287 28 39.0833 28C34.9379 28 31.5775 31.3605 31.5775 35.5059C31.5775 39.6512 34.9379 43.0117 39.0833 43.0117Z" stroke="white" stroke-width="3.75293" stroke-linecap="round" stroke-linejoin="round"/>
</svg>
