<svg width="91" height="91" viewBox="0 0 91 91" fill="none" xmlns="http://www.w3.org/2000/svg">
<path d="M0 22.5176C0 10.0815 10.0815 0 22.5176 0H67.5528C79.9889 0 90.0704 10.0815 90.0704 22.5176V67.5528C90.0704 79.9889 79.9889 90.0704 67.5528 90.0704H22.5176C10.0815 90.0704 0 79.9889 0 67.5528V22.5176Z" fill="#E5320F"/>
<path d="M45.0353 63.7993C55.3987 63.7993 63.7999 55.3981 63.7999 45.0347C63.7999 34.6712 55.3987 26.27 45.0353 26.27C34.6719 26.27 26.2706 34.6712 26.2706 45.0347C26.2706 55.3981 34.6719 63.7993 45.0353 63.7993Z" stroke="white" stroke-width="3.75293" stroke-linecap="round" stroke-linejoin="round"/>
<path d="M45.0353 56.294C51.2533 56.294 56.2941 51.2532 56.2941 45.0352C56.2941 38.8171 51.2533 33.7764 45.0353 33.7764C38.8172 33.7764 33.7765 38.8171 33.7765 45.0352C33.7765 51.2532 38.8172 56.294 45.0353 56.294Z" stroke="white" stroke-width="3.75293" stroke-linecap="round" stroke-linejoin="round"/>
<path d="M45.0352 48.7886C47.1078 48.7886 48.7881 47.1083 48.7881 45.0356C48.7881 42.963 47.1078 41.2827 45.0352 41.2827C42.9625 41.2827 41.2822 42.963 41.2822 45.0356C41.2822 47.1083 42.9625 48.7886 45.0352 48.7886Z" stroke="white" stroke-width="3.75293" stroke-linecap="round" stroke-linejoin="round"/>
</svg>
