<svg width="91" height="91" viewBox="0 0 91 91" fill="none" xmlns="http://www.w3.org/2000/svg">
<path d="M0 22.5176C0 10.0815 10.0815 0 22.5176 0H67.5528C79.9889 0 90.0704 10.0815 90.0704 22.5176V67.5528C90.0704 79.9889 79.9889 90.0704 67.5528 90.0704H22.5176C10.0815 90.0704 0 79.9889 0 67.5528V22.5176Z" fill="#E5320F"/>
<path d="M51.5597 46.7041L54.4025 62.7029C54.4343 62.8912 54.4079 63.0849 54.3267 63.2578C54.2456 63.4308 54.1135 63.5748 53.9483 63.6707C53.783 63.7666 53.5924 63.8098 53.402 63.7944C53.2115 63.7791 53.0303 63.7059 52.8826 63.5848L46.1648 58.5427C45.8405 58.3004 45.4466 58.1695 45.0417 58.1695C44.6369 58.1695 44.243 58.3004 43.9187 58.5427L37.1897 63.5829C37.042 63.7038 36.861 63.7768 36.6708 63.7922C36.4806 63.8076 36.2902 63.7646 36.1251 63.669C35.9599 63.5734 35.8279 63.4297 35.7465 63.257C35.6652 63.0844 35.6384 62.8911 35.6697 62.7029L38.5107 46.7041" stroke="white" stroke-width="3.75293" stroke-linecap="round" stroke-linejoin="round"/>
<path d="M45.0351 48.7876C51.2532 48.7876 56.2939 43.7469 56.2939 37.5288C56.2939 31.3108 51.2532 26.27 45.0351 26.27C38.817 26.27 33.7763 31.3108 33.7763 37.5288C33.7763 43.7469 38.817 48.7876 45.0351 48.7876Z" stroke="white" stroke-width="3.75293" stroke-linecap="round" stroke-linejoin="round"/>
</svg>
